<?xml version="1.0" encoding="UTF-8" standalone="no"?><svg xmlns="http://www.w3.org/2000/svg" xmlns:xlink="http://www.w3.org/1999/xlink" contentStyleType="text/css" height="933px" preserveAspectRatio="none" style="width:1347px;height:933px;background:#FFFFFF;" version="1.1" viewBox="0 0 1347 933" width="1347px" zoomAndPan="magnify"><defs/><g><!--MD5=[fefff7b0103315ca53c7981c3e61735d]
class Администратор--><g id="elem_Администратор"><rect codeLine="5" fill="#F1F1F1" height="194.6719" id="Администратор" rx="2.5" ry="2.5" style="stroke:#181818;stroke-width:0.5;" width="184" x="848" y="7"/><ellipse cx="878.75" cy="23" fill="#ADD1B2" rx="11" ry="11" style="stroke:#181818;stroke-width:1.0;"/><path d="M881.7188,28.6406 Q881.1406,28.9375 880.5,29.0781 Q879.8594,29.2344 879.1563,29.2344 Q876.6563,29.2344 875.3281,27.5938 Q874.0156,25.9375 874.0156,22.8125 Q874.0156,19.6875 875.3281,18.0313 Q876.6563,16.375 879.1563,16.375 Q879.8594,16.375 880.5,16.5313 Q881.1563,16.6875 881.7188,16.9844 L881.7188,19.7031 Q881.0938,19.125 880.5,18.8594 Q879.9063,18.5781 879.2813,18.5781 Q877.9375,18.5781 877.25,19.6563 Q876.5625,20.7188 876.5625,22.8125 Q876.5625,24.9063 877.25,25.9844 Q877.9375,27.0469 879.2813,27.0469 Q879.9063,27.0469 880.5,26.7813 Q881.0938,26.5 881.7188,25.9219 L881.7188,28.6406 Z " fill="#000000"/><text fill="#000000" font-family="sans-serif" font-size="14" lengthAdjust="spacing" textLength="117" x="896.25" y="27.8467">Администратор</text><line style="stroke:#181818;stroke-width:0.5;" x1="849" x2="1031" y1="39" y2="39"/><text fill="#000000" font-family="sans-serif" font-size="14" lengthAdjust="spacing" textLength="99" x="854" y="55.9951">-зарплата: int</text><text fill="#000000" font-family="sans-serif" font-size="14" lengthAdjust="spacing" textLength="170" x="854" y="72.292">-график_работы: String</text><text fill="#000000" font-family="sans-serif" font-size="14" lengthAdjust="spacing" textLength="88" x="854" y="88.5889">-ФИО: String</text><text fill="#000000" font-family="sans-serif" font-size="14" lengthAdjust="spacing" textLength="172" x="854" y="104.8857">-дата_рождения: String</text><text fill="#000000" font-family="sans-serif" font-size="14" lengthAdjust="spacing" textLength="115" x="854" y="121.1826">-паспорт: String</text><text fill="#000000" font-family="sans-serif" font-size="14" lengthAdjust="spacing" textLength="123" x="854" y="137.4795">-прописка: String</text><text fill="#000000" font-family="sans-serif" font-size="14" lengthAdjust="spacing" textLength="148" x="854" y="153.7764">-мед_справка: String</text><text fill="#000000" font-family="sans-serif" font-size="14" lengthAdjust="spacing" textLength="84" x="854" y="170.0732">-ИНН: String</text><text fill="#000000" font-family="sans-serif" font-size="14" lengthAdjust="spacing" textLength="105" x="854" y="186.3701">-СНИЛС: String</text><line style="stroke:#181818;stroke-width:0.5;" x1="849" x2="1031" y1="193.6719" y2="193.6719"/></g><!--MD5=[77ab9f30400fde287bb30d5efe8cde38]
class Продавец--><g id="elem_Продавец"><rect codeLine="17" fill="#F1F1F1" height="194.6719" id="Продавец" rx="2.5" ry="2.5" style="stroke:#181818;stroke-width:0.5;" width="184" x="7" y="7"/><ellipse cx="58.25" cy="23" fill="#ADD1B2" rx="11" ry="11" style="stroke:#181818;stroke-width:1.0;"/><path d="M61.2188,28.6406 Q60.6406,28.9375 60,29.0781 Q59.3594,29.2344 58.6563,29.2344 Q56.1563,29.2344 54.8281,27.5938 Q53.5156,25.9375 53.5156,22.8125 Q53.5156,19.6875 54.8281,18.0313 Q56.1563,16.375 58.6563,16.375 Q59.3594,16.375 60,16.5313 Q60.6563,16.6875 61.2188,16.9844 L61.2188,19.7031 Q60.5938,19.125 60,18.8594 Q59.4063,18.5781 58.7813,18.5781 Q57.4375,18.5781 56.75,19.6563 Q56.0625,20.7188 56.0625,22.8125 Q56.0625,24.9063 56.75,25.9844 Q57.4375,27.0469 58.7813,27.0469 Q59.4063,27.0469 60,26.7813 Q60.5938,26.5 61.2188,25.9219 L61.2188,28.6406 Z " fill="#000000"/><text fill="#000000" font-family="sans-serif" font-size="14" lengthAdjust="spacing" textLength="73" x="78.75" y="27.8467">Продавец</text><line style="stroke:#181818;stroke-width:0.5;" x1="8" x2="190" y1="39" y2="39"/><text fill="#000000" font-family="sans-serif" font-size="14" lengthAdjust="spacing" textLength="99" x="13" y="55.9951">-зарплата: int</text><text fill="#000000" font-family="sans-serif" font-size="14" lengthAdjust="spacing" textLength="170" x="13" y="72.292">-график_работы: String</text><text fill="#000000" font-family="sans-serif" font-size="14" lengthAdjust="spacing" textLength="88" x="13" y="88.5889">-ФИО: String</text><text fill="#000000" font-family="sans-serif" font-size="14" lengthAdjust="spacing" textLength="172" x="13" y="104.8857">-дата_рождения: String</text><text fill="#000000" font-family="sans-serif" font-size="14" lengthAdjust="spacing" textLength="115" x="13" y="121.1826">-паспорт: String</text><text fill="#000000" font-family="sans-serif" font-size="14" lengthAdjust="spacing" textLength="123" x="13" y="137.4795">-прописка: String</text><text fill="#000000" font-family="sans-serif" font-size="14" lengthAdjust="spacing" textLength="148" x="13" y="153.7764">-мед_справка: String</text><text fill="#000000" font-family="sans-serif" font-size="14" lengthAdjust="spacing" textLength="84" x="13" y="170.0732">-ИНН: String</text><text fill="#000000" font-family="sans-serif" font-size="14" lengthAdjust="spacing" textLength="105" x="13" y="186.3701">-СНИЛС: String</text><line style="stroke:#181818;stroke-width:0.5;" x1="8" x2="190" y1="193.6719" y2="193.6719"/></g><!--MD5=[25e92910c92850ff1cb54049935f9143]
class Покупатель--><g id="elem_Покупатель"><rect codeLine="29" fill="#F1F1F1" height="80.5938" id="Покупатель" rx="2.5" ry="2.5" style="stroke:#181818;stroke-width:0.5;" width="210" x="152" y="286"/><ellipse cx="209.75" cy="302" fill="#ADD1B2" rx="11" ry="11" style="stroke:#181818;stroke-width:1.0;"/><path d="M212.7188,307.6406 Q212.1406,307.9375 211.5,308.0781 Q210.8594,308.2344 210.1563,308.2344 Q207.6563,308.2344 206.3281,306.5938 Q205.0156,304.9375 205.0156,301.8125 Q205.0156,298.6875 206.3281,297.0313 Q207.6563,295.375 210.1563,295.375 Q210.8594,295.375 211.5,295.5313 Q212.1563,295.6875 212.7188,295.9844 L212.7188,298.7031 Q212.0938,298.125 211.5,297.8594 Q210.9063,297.5781 210.2813,297.5781 Q208.9375,297.5781 208.25,298.6563 Q207.5625,299.7188 207.5625,301.8125 Q207.5625,303.9063 208.25,304.9844 Q208.9375,306.0469 210.2813,306.0469 Q210.9063,306.0469 211.5,305.7813 Q212.0938,305.5 212.7188,304.9219 L212.7188,307.6406 Z " fill="#000000"/><text fill="#000000" font-family="sans-serif" font-size="14" lengthAdjust="spacing" textLength="86" x="230.25" y="306.8467">Покупатель</text><line style="stroke:#181818;stroke-width:0.5;" x1="153" x2="361" y1="318" y2="318"/><text fill="#000000" font-family="sans-serif" font-size="14" lengthAdjust="spacing" textLength="141" x="158" y="334.9951">+ID_покупки: String</text><text fill="#000000" font-family="sans-serif" font-size="14" lengthAdjust="spacing" textLength="198" x="158" y="351.292">+источник_средств: String</text><line style="stroke:#181818;stroke-width:0.5;" x1="153" x2="361" y1="358.5938" y2="358.5938"/></g><!--MD5=[828667960b7d7e51d1c94459e1adb5e4]
class Покупка--><g id="elem_Покупка"><rect codeLine="34" fill="#F1F1F1" height="113.1875" id="Покупка" rx="2.5" ry="2.5" style="stroke:#181818;stroke-width:0.5;" width="241" x="136.5" y="451"/><ellipse cx="223.25" cy="467" fill="#ADD1B2" rx="11" ry="11" style="stroke:#181818;stroke-width:1.0;"/><path d="M226.2188,472.6406 Q225.6406,472.9375 225,473.0781 Q224.3594,473.2344 223.6563,473.2344 Q221.1563,473.2344 219.8281,471.5938 Q218.5156,469.9375 218.5156,466.8125 Q218.5156,463.6875 219.8281,462.0313 Q221.1563,460.375 223.6563,460.375 Q224.3594,460.375 225,460.5313 Q225.6563,460.6875 226.2188,460.9844 L226.2188,463.7031 Q225.5938,463.125 225,462.8594 Q224.4063,462.5781 223.7813,462.5781 Q222.4375,462.5781 221.75,463.6563 Q221.0625,464.7188 221.0625,466.8125 Q221.0625,468.9063 221.75,469.9844 Q222.4375,471.0469 223.7813,471.0469 Q224.4063,471.0469 225,470.7813 Q225.5938,470.5 226.2188,469.9219 L226.2188,472.6406 Z " fill="#000000"/><text fill="#000000" font-family="sans-serif" font-size="14" lengthAdjust="spacing" textLength="59" x="243.75" y="471.8467">Покупка</text><line style="stroke:#181818;stroke-width:0.5;" x1="137.5" x2="376.5" y1="483" y2="483"/><text fill="#000000" font-family="sans-serif" font-size="14" lengthAdjust="spacing" textLength="141" x="142.5" y="499.9951">+ID_покупки: String</text><text fill="#000000" font-family="sans-serif" font-size="14" lengthAdjust="spacing" textLength="143" x="142.5" y="516.292">+сумма_оплаты: int</text><text fill="#000000" font-family="sans-serif" font-size="14" lengthAdjust="spacing" textLength="170" x="142.5" y="532.5889">+метод_оплаты: String</text><text fill="#000000" font-family="sans-serif" font-size="14" lengthAdjust="spacing" textLength="229" x="142.5" y="548.8857">+список_товаров: List&lt;Товар&gt;</text><line style="stroke:#181818;stroke-width:0.5;" x1="137.5" x2="376.5" y1="556.1875" y2="556.1875"/></g><!--MD5=[798065640e20e701874de967877edc5c]
class Склад--><g id="elem_Склад"><rect codeLine="41" fill="#F1F1F1" height="96.8906" id="Склад" rx="2.5" ry="2.5" style="stroke:#181818;stroke-width:0.5;" width="241" x="645.5" y="278"/><ellipse cx="739.25" cy="294" fill="#ADD1B2" rx="11" ry="11" style="stroke:#181818;stroke-width:1.0;"/><path d="M742.2188,299.6406 Q741.6406,299.9375 741,300.0781 Q740.3594,300.2344 739.6563,300.2344 Q737.1563,300.2344 735.8281,298.5938 Q734.5156,296.9375 734.5156,293.8125 Q734.5156,290.6875 735.8281,289.0313 Q737.1563,287.375 739.6563,287.375 Q740.3594,287.375 741,287.5313 Q741.6563,287.6875 742.2188,287.9844 L742.2188,290.7031 Q741.5938,290.125 741,289.8594 Q740.4063,289.5781 739.7813,289.5781 Q738.4375,289.5781 737.75,290.6563 Q737.0625,291.7188 737.0625,293.8125 Q737.0625,295.9063 737.75,296.9844 Q738.4375,298.0469 739.7813,298.0469 Q740.4063,298.0469 741,297.7813 Q741.5938,297.5 742.2188,296.9219 L742.2188,299.6406 Z " fill="#000000"/><text fill="#000000" font-family="sans-serif" font-size="14" lengthAdjust="spacing" textLength="45" x="759.75" y="298.8467">Склад</text><line style="stroke:#181818;stroke-width:0.5;" x1="646.5" x2="885.5" y1="310" y2="310"/><text fill="#000000" font-family="sans-serif" font-size="14" lengthAdjust="spacing" textLength="133" x="651.5" y="326.9951">+ID_склада: String</text><text fill="#000000" font-family="sans-serif" font-size="14" lengthAdjust="spacing" textLength="229" x="651.5" y="343.292">+список_товаров: List&lt;Товар&gt;</text><text fill="#000000" font-family="sans-serif" font-size="14" lengthAdjust="spacing" textLength="201" x="651.5" y="359.5889">+список_операций: String[]</text><line style="stroke:#181818;stroke-width:0.5;" x1="646.5" x2="885.5" y1="366.8906" y2="366.8906"/></g><!--MD5=[8a1b65feb09dc2c533257604cfc84589]
class Касса--><g id="elem_Касса"><rect codeLine="47" fill="#F1F1F1" height="129.4844" id="Касса" rx="2.5" ry="2.5" style="stroke:#181818;stroke-width:0.5;" width="213" x="397.5" y="262"/><ellipse cx="478.75" cy="278" fill="#ADD1B2" rx="11" ry="11" style="stroke:#181818;stroke-width:1.0;"/><path d="M481.7188,283.6406 Q481.1406,283.9375 480.5,284.0781 Q479.8594,284.2344 479.1563,284.2344 Q476.6563,284.2344 475.3281,282.5938 Q474.0156,280.9375 474.0156,277.8125 Q474.0156,274.6875 475.3281,273.0313 Q476.6563,271.375 479.1563,271.375 Q479.8594,271.375 480.5,271.5313 Q481.1563,271.6875 481.7188,271.9844 L481.7188,274.7031 Q481.0938,274.125 480.5,273.8594 Q479.9063,273.5781 479.2813,273.5781 Q477.9375,273.5781 477.25,274.6563 Q476.5625,275.7188 476.5625,277.8125 Q476.5625,279.9063 477.25,280.9844 Q477.9375,282.0469 479.2813,282.0469 Q479.9063,282.0469 480.5,281.7813 Q481.0938,281.5 481.7188,280.9219 L481.7188,283.6406 Z " fill="#000000"/><text fill="#000000" font-family="sans-serif" font-size="14" lengthAdjust="spacing" textLength="42" x="499.25" y="282.8467">Касса</text><line style="stroke:#181818;stroke-width:0.5;" x1="398.5" x2="609.5" y1="294" y2="294"/><text fill="#000000" font-family="sans-serif" font-size="14" lengthAdjust="spacing" textLength="125" x="403.5" y="310.9951">+ID_кассы: String</text><text fill="#000000" font-family="sans-serif" font-size="14" lengthAdjust="spacing" textLength="153" x="403.5" y="327.292">+ID_продавца: String</text><text fill="#000000" font-family="sans-serif" font-size="14" lengthAdjust="spacing" textLength="182" x="403.5" y="343.5889">+расчетный_счет: String</text><text fill="#000000" font-family="sans-serif" font-size="14" lengthAdjust="spacing" textLength="187" x="403.5" y="359.8857">+общая_сумма_денег: int</text><text fill="#000000" font-family="sans-serif" font-size="14" lengthAdjust="spacing" textLength="201" x="403.5" y="376.1826">+список_операций: String[]</text><line style="stroke:#181818;stroke-width:0.5;" x1="398.5" x2="609.5" y1="383.4844" y2="383.4844"/></g><!--MD5=[9687e3e7b75f5c2e3c486d9ddddcbe07]
class Товар--><g id="elem_Товар"><rect codeLine="55" fill="#F1F1F1" height="145.7813" id="Товар" rx="2.5" ry="2.5" style="stroke:#181818;stroke-width:0.5;" width="248" x="133" y="624"/><ellipse cx="231.25" cy="640" fill="#ADD1B2" rx="11" ry="11" style="stroke:#181818;stroke-width:1.0;"/><path d="M234.2188,645.6406 Q233.6406,645.9375 233,646.0781 Q232.3594,646.2344 231.6563,646.2344 Q229.1563,646.2344 227.8281,644.5938 Q226.5156,642.9375 226.5156,639.8125 Q226.5156,636.6875 227.8281,635.0313 Q229.1563,633.375 231.6563,633.375 Q232.3594,633.375 233,633.5313 Q233.6563,633.6875 234.2188,633.9844 L234.2188,636.7031 Q233.5938,636.125 233,635.8594 Q232.4063,635.5781 231.7813,635.5781 Q230.4375,635.5781 229.75,636.6563 Q229.0625,637.7188 229.0625,639.8125 Q229.0625,641.9063 229.75,642.9844 Q230.4375,644.0469 231.7813,644.0469 Q232.4063,644.0469 233,643.7813 Q233.5938,643.5 234.2188,642.9219 L234.2188,645.6406 Z " fill="#000000"/><text fill="#000000" font-family="sans-serif" font-size="14" lengthAdjust="spacing" textLength="43" x="251.75" y="644.8467">Товар</text><line style="stroke:#181818;stroke-width:0.5;" x1="134" x2="380" y1="656" y2="656"/><text fill="#000000" font-family="sans-serif" font-size="14" lengthAdjust="spacing" textLength="133" x="139" y="672.9951">+ID_товара: String</text><text fill="#000000" font-family="sans-serif" font-size="14" lengthAdjust="spacing" textLength="173" x="139" y="689.292">+пригодность: boolean</text><text fill="#000000" font-family="sans-serif" font-size="14" lengthAdjust="spacing" textLength="74" x="139" y="705.5889">+цена: int</text><text fill="#000000" font-family="sans-serif" font-size="14" lengthAdjust="spacing" textLength="124" x="139" y="721.8857">+количество: int</text><text fill="#000000" font-family="sans-serif" font-size="14" lengthAdjust="spacing" textLength="137" x="139" y="738.1826">+категория: String</text><text fill="#000000" font-family="sans-serif" font-size="14" lengthAdjust="spacing" textLength="236" x="139" y="754.4795">+критерии_пригодности: String</text><line style="stroke:#181818;stroke-width:0.5;" x1="134" x2="380" y1="761.7813" y2="761.7813"/></g><!--MD5=[b9d3242351bbd0ad78a47ca3bbb572ed]
class Торговое_имущество--><g id="elem_Торговое_имущество"><rect codeLine="64" fill="#F1F1F1" height="96.8906" id="Торговое_имущество" rx="2.5" ry="2.5" style="stroke:#181818;stroke-width:0.5;" width="191" x="415.5" y="830"/><ellipse cx="430.5" cy="846" fill="#ADD1B2" rx="11" ry="11" style="stroke:#181818;stroke-width:1.0;"/><path d="M433.4688,851.6406 Q432.8906,851.9375 432.25,852.0781 Q431.6094,852.2344 430.9063,852.2344 Q428.4063,852.2344 427.0781,850.5938 Q425.7656,848.9375 425.7656,845.8125 Q425.7656,842.6875 427.0781,841.0313 Q428.4063,839.375 430.9063,839.375 Q431.6094,839.375 432.25,839.5313 Q432.9063,839.6875 433.4688,839.9844 L433.4688,842.7031 Q432.8438,842.125 432.25,841.8594 Q431.6563,841.5781 431.0313,841.5781 Q429.6875,841.5781 429,842.6563 Q428.3125,843.7188 428.3125,845.8125 Q428.3125,847.9063 429,848.9844 Q429.6875,850.0469 431.0313,850.0469 Q431.6563,850.0469 432.25,849.7813 Q432.8438,849.5 433.4688,848.9219 L433.4688,851.6406 Z " fill="#000000"/><text fill="#000000" font-family="sans-serif" font-size="14" lengthAdjust="spacing" textLength="159" x="444.5" y="850.8467">Торговое_имущество</text><line style="stroke:#181818;stroke-width:0.5;" x1="416.5" x2="605.5" y1="862" y2="862"/><text fill="#000000" font-family="sans-serif" font-size="14" lengthAdjust="spacing" textLength="164" x="421.5" y="878.9951">+ID_имущества: String</text><text fill="#000000" font-family="sans-serif" font-size="14" lengthAdjust="spacing" textLength="173" x="421.5" y="895.292">+пригодность: boolean</text><text fill="#000000" font-family="sans-serif" font-size="14" lengthAdjust="spacing" textLength="74" x="421.5" y="911.5889">+цена: int</text><line style="stroke:#181818;stroke-width:0.5;" x1="416.5" x2="605.5" y1="918.8906" y2="918.8906"/></g><!--MD5=[40dd77b20a02c37471b5bad312e23854]
class Контрагент--><g id="elem_Контрагент"><rect codeLine="70" fill="#F1F1F1" height="113.1875" id="Контрагент" rx="2.5" ry="2.5" style="stroke:#181818;stroke-width:0.5;" width="141" x="993.5" y="270"/><ellipse cx="1017.95" cy="286" fill="#ADD1B2" rx="11" ry="11" style="stroke:#181818;stroke-width:1.0;"/><path d="M1020.9188,291.6406 Q1020.3406,291.9375 1019.7,292.0781 Q1019.0594,292.2344 1018.3563,292.2344 Q1015.8563,292.2344 1014.5281,290.5938 Q1013.2156,288.9375 1013.2156,285.8125 Q1013.2156,282.6875 1014.5281,281.0313 Q1015.8563,279.375 1018.3563,279.375 Q1019.0594,279.375 1019.7,279.5313 Q1020.3563,279.6875 1020.9188,279.9844 L1020.9188,282.7031 Q1020.2938,282.125 1019.7,281.8594 Q1019.1063,281.5781 1018.4813,281.5781 Q1017.1375,281.5781 1016.45,282.6563 Q1015.7625,283.7188 1015.7625,285.8125 Q1015.7625,287.9063 1016.45,288.9844 Q1017.1375,290.0469 1018.4813,290.0469 Q1019.1063,290.0469 1019.7,289.7813 Q1020.2938,289.5 1020.9188,288.9219 L1020.9188,291.6406 Z " fill="#000000"/><text fill="#000000" font-family="sans-serif" font-size="14" lengthAdjust="spacing" textLength="88" x="1034.05" y="290.8467">Контрагент</text><line style="stroke:#181818;stroke-width:0.5;" x1="994.5" x2="1133.5" y1="302" y2="302"/><text fill="#000000" font-family="sans-serif" font-size="14" lengthAdjust="spacing" textLength="129" x="999.5" y="318.9951">+название: String</text><text fill="#000000" font-family="sans-serif" font-size="14" lengthAdjust="spacing" textLength="91" x="999.5" y="335.292">+ИНН: String</text><text fill="#000000" font-family="sans-serif" font-size="14" lengthAdjust="spacing" textLength="99" x="999.5" y="351.5889">+ОГРН: String</text><text fill="#000000" font-family="sans-serif" font-size="14" lengthAdjust="spacing" textLength="119" x="999.5" y="367.8857">+ОГРНИП: String</text><line style="stroke:#181818;stroke-width:0.5;" x1="994.5" x2="1133.5" y1="375.1875" y2="375.1875"/></g><!--MD5=[fbdfc4248288141e3d34de1ea7e26712]
class Книга_учета--><g id="elem_Книга_учета"><rect codeLine="77" fill="#F1F1F1" height="64.2969" id="Книга_учета" rx="2.5" ry="2.5" style="stroke:#181818;stroke-width:0.5;" width="171" x="1169.5" y="294.5"/><ellipse cx="1206.1" cy="310.5" fill="#ADD1B2" rx="11" ry="11" style="stroke:#181818;stroke-width:1.0;"/><path d="M1209.0688,316.1406 Q1208.4906,316.4375 1207.85,316.5781 Q1207.2094,316.7344 1206.5063,316.7344 Q1204.0063,316.7344 1202.6781,315.0938 Q1201.3656,313.4375 1201.3656,310.3125 Q1201.3656,307.1875 1202.6781,305.5313 Q1204.0063,303.875 1206.5063,303.875 Q1207.2094,303.875 1207.85,304.0313 Q1208.5063,304.1875 1209.0688,304.4844 L1209.0688,307.2031 Q1208.4438,306.625 1207.85,306.3594 Q1207.2563,306.0781 1206.6313,306.0781 Q1205.2875,306.0781 1204.6,307.1563 Q1203.9125,308.2188 1203.9125,310.3125 Q1203.9125,312.4063 1204.6,313.4844 Q1205.2875,314.5469 1206.6313,314.5469 Q1207.2563,314.5469 1207.85,314.2813 Q1208.4438,314 1209.0688,313.4219 L1209.0688,316.1406 Z " fill="#000000"/><text fill="#000000" font-family="sans-serif" font-size="14" lengthAdjust="spacing" textLength="91" x="1224.9" y="315.3467">Книга_учета</text><line style="stroke:#181818;stroke-width:0.5;" x1="1170.5" x2="1339.5" y1="326.5" y2="326.5"/><text fill="#000000" font-family="sans-serif" font-size="14" lengthAdjust="spacing" textLength="159" x="1175.5" y="343.4951">+записи: List&lt;String&gt;</text><line style="stroke:#181818;stroke-width:0.5;" x1="1170.5" x2="1339.5" y1="350.7969" y2="350.7969"/></g><!--MD5=[8d921adbe5f0c8214a2624dece9471a4]
link Администратор to Контрагент--><g id="link_Администратор_Контрагент"><path codeLine="81" d="M1012.75,202.2 C1012.75,202.2 1012.75,249.89 1012.75,249.89 " fill="none" id="Администратор-to-Контрагент" style="stroke:#181818;stroke-width:1.0;"/><polygon fill="none" points="1019.75,249.89,1012.75,269.89,1005.75,249.89,1019.75,249.89" style="stroke:#181818;stroke-width:1.0;"/></g><!--MD5=[cb902523bb7c128a3ad58e5b0b469426]
link Администратор to Склад--><g id="link_Администратор_Склад"><path codeLine="82" d="M873.67,202.2 C873.67,202.2 873.67,257.79 873.67,257.79 " fill="none" id="Администратор-to-Склад" style="stroke:#181818;stroke-width:1.0;"/><polygon fill="none" points="880.67,257.79,873.67,277.79,866.67,257.79,880.67,257.79" style="stroke:#181818;stroke-width:1.0;"/></g><!--MD5=[ca8188c53718c5b70ef822e3351927cd]
link Администратор to Касса--><g id="link_Администратор_Касса"><path codeLine="83" d="M860.83,202.17 C860.83,236.18 860.83,266 860.83,266 C860.83,266 630.58,266 630.58,266 " fill="none" id="Администратор-to-Касса" style="stroke:#181818;stroke-width:1.0;"/><polygon fill="none" points="630.58,273,610.58,266,630.58,259,630.58,273" style="stroke:#181818;stroke-width:1.0;"/></g><!--MD5=[b10f821d2f6250a1af7e60a71b116cf9]
link Администратор to Торговое_имущество--><g id="link_Администратор_Торговое_имущество"><path codeLine="84" d="M940,202.22 C940,413.72 940,895 940,895 C940,895 626.74,895 626.74,895 " fill="none" id="Администратор-to-Торговое_имущество" style="stroke:#181818;stroke-width:1.0;"/><polygon fill="none" points="626.74,902,606.74,895,626.74,888,626.74,902" style="stroke:#181818;stroke-width:1.0;"/></g><!--MD5=[4a90f6d26b36d9ef9e77f083eae74c8b]
link Администратор to Книга_учета--><g id="link_Администратор_Книга_учета"><path codeLine="85" d="M1032.38,105 C1125.33,105 1255,105 1255,105 C1255,105 1255,274.29 1255,274.29 " fill="none" id="Администратор-to-Книга_учета" style="stroke:#181818;stroke-width:1.0;"/><polygon fill="none" points="1262,274.29,1255,294.29,1248,274.29,1262,274.29" style="stroke:#181818;stroke-width:1.0;"/></g><!--MD5=[3dbdafd5993386880081485e4d6d42a2]
link Продавец to Касса--><g id="link_Продавец_Касса"><path codeLine="86" d="M171.5,202.12 C171.5,239.8 171.5,274 171.5,274 C171.5,274 377.42,274 377.42,274 " fill="none" id="Продавец-to-Касса" style="stroke:#181818;stroke-width:1.0;"/><polygon fill="none" points="377.42,267,397.42,274,377.42,281,377.42,267" style="stroke:#181818;stroke-width:1.0;"/></g><!--MD5=[915c6b1b17abc12766c61b6824f11673]
link Продавец to Склад--><g id="link_Продавец_Склад"><path codeLine="87" d="M191.12,105 C369.95,105 746.75,105 746.75,105 C746.75,105 746.75,257.89 746.75,257.89 " fill="none" id="Продавец-to-Склад" style="stroke:#181818;stroke-width:1.0;"/><polygon fill="none" points="753.75,257.89,746.75,277.89,739.75,257.89,753.75,257.89" style="stroke:#181818;stroke-width:1.0;"/></g><!--MD5=[303f390995e7c6106c14b74f830a4349]
link Продавец to Торговое_имущество--><g id="link_Продавец_Торговое_имущество"><path codeLine="88" d="M49,202.2 C49,410.41 49,879 49,879 C49,879 395.27,879 395.27,879 " fill="none" id="Продавец-to-Торговое_имущество" style="stroke:#181818;stroke-width:1.0;"/><polygon fill="none" points="395.27,872,415.27,879,395.27,886,395.27,872" style="stroke:#181818;stroke-width:1.0;"/></g><!--MD5=[b3e40bc047b7ee5bd310609acde185c4]
link Продавец to Покупка--><g id="link_Продавец_Покупка"><path codeLine="89" d="M144.25,202.06 C144.25,202.06 144.25,430.92 144.25,430.92 " fill="none" id="Продавец-to-Покупка" style="stroke:#181818;stroke-width:1.0;"/><polygon fill="none" points="151.25,430.92,144.25,450.92,137.25,430.92,151.25,430.92" style="stroke:#181818;stroke-width:1.0;"/></g><!--MD5=[ac5d3a4ef5051962a3807c257f83bb5f]
link Продавец to Товар--><g id="link_Продавец_Товар"><path codeLine="90" d="M91,202.01 C91,370.2 91,697 91,697 C91,697 112.89,697 112.89,697 " fill="none" id="Продавец-to-Товар" style="stroke:#181818;stroke-width:1.0;"/><polygon fill="none" points="112.89,690,132.89,697,112.89,704,112.89,690" style="stroke:#181818;stroke-width:1.0;"/></g><!--MD5=[c60a3239664be720c80f9b961c853ad3]
link Покупатель to Покупка--><g id="link_Покупатель_Покупка"><path codeLine="91" d="M257,367.12 C257,367.12 257,430.89 257,430.89 " fill="none" id="Покупатель-to-Покупка" style="stroke:#181818;stroke-width:1.0;"/><polygon fill="none" points="264,430.89,257,450.89,250,430.89,264,430.89" style="stroke:#181818;stroke-width:1.0;"/></g><!--MD5=[e7781457909e635e94d8bac622ebd7ae]
link Покупка to Товар--><g id="link_Покупка_Товар"><path codeLine="92" d="M257,564.1 C257,564.1 257,603.83 257,603.83 " fill="none" id="Покупка-to-Товар" style="stroke:#181818;stroke-width:1.0;"/><polygon fill="none" points="264,603.83,257,623.83,250,603.83,264,603.83" style="stroke:#181818;stroke-width:1.0;"/></g><!--MD5=[03eb06c9450cda46003e028c4e142526]
link Склад to Торговое_имущество--><g id="link_Склад_Торговое_имущество"><path codeLine="93" d="M766,375.06 C766,507.12 766,863 766,863 C766,863 626.68,863 626.68,863 " fill="none" id="Склад-to-Торговое_имущество" style="stroke:#181818;stroke-width:1.0;"/><polygon fill="none" points="626.68,870,606.68,863,626.68,856,626.68,870" style="stroke:#181818;stroke-width:1.0;"/></g><!--MD5=[8e12cfa8a2751b34d45eb883a804d252]
link Касса to Покупка--><g id="link_Касса_Покупка"><path codeLine="94" d="M397.24,379 C381.12,379 369.75,379 369.75,379 C369.75,379 369.75,430.76 369.75,430.76 " fill="none" id="Касса-to-Покупка" style="stroke:#181818;stroke-width:1.0;"/><polygon fill="none" points="376.75,430.76,369.75,450.76,362.75,430.76,376.75,430.76" style="stroke:#181818;stroke-width:1.0;"/></g><!--MD5=[dacb0c578182e2011d0b4874fc542bc2]
link Товар to Торговое_имущество--><g id="link_Товар_Торговое_имущество"><path codeLine="95" d="M381.02,697 C445.5,697 511,697 511,697 C511,697 511,809.86 511,809.86 " fill="none" id="Товар-to-Торговое_имущество" style="stroke:#181818;stroke-width:1.0;"/><polygon fill="none" points="518,809.86,511,829.86,504,809.86,518,809.86" style="stroke:#181818;stroke-width:1.0;"/></g><!--MD5=[cb7094b6f054a08845e7c9bfc9386909]
@startuml
skinparam linetype ortho
skinparam shadowing false
skinparam classAttributeIconSize 0

class Администратор {
- зарплата: int
- график_работы: String
- ФИО: String
- дата_рождения: String
- паспорт: String
- прописка: String
- мед_справка: String
- ИНН: String
- СНИЛС: String
}

class Продавец {
- зарплата: int
- график_работы: String
- ФИО: String
- дата_рождения: String
- паспорт: String
- прописка: String
- мед_справка: String
- ИНН: String
- СНИЛС: String
}

class Покупатель {
+ ID_покупки: String
+ источник_средств: String
}

class Покупка {
+ ID_покупки: String
+ сумма_оплаты: int
+ метод_оплаты: String
+ список_товаров: List<Товар>
}

class Склад {
+ ID_склада: String
+ список_товаров: List<Товар>
+ список_операций: String[]
}

class Касса {
+ ID_кассы: String
+ ID_продавца: String
+ расчетный_счет: String
+ общая_сумма_денег: int
+ список_операций: String[]
}

class Товар {
+ ID_товара: String
+ пригодность: boolean
+ цена: int
+ количество: int
+ категория: String
+ критерии_пригодности: String
}

class Торговое_имущество {
+ ID_имущества: String
+ пригодность: boolean
+ цена: int
}

class Контрагент {
+ название: String
+ ИНН: String
+ ОГРН: String
+ ОГРНИП: String
}

class Книга_учета {
+ записи: List<String>
}

Администратор - -|> Контрагент
Администратор - -|> Склад
Администратор - -|> Касса
Администратор - -|> Торговое_имущество
Администратор - -|> Книга_учета
Продавец - -|> Касса
Продавец - -|> Склад
Продавец - -|> Торговое_имущество
Продавец - -|> Покупка
Продавец - -|> Товар
Покупатель - -|> Покупка
Покупка - -|> Товар
Склад - -|> Торговое_имущество
Касса - -|> Покупка
Товар - -|> Торговое_имущество
@enduml

PlantUML version 1.2022.7(Mon Aug 22 17:01:30 UTC 2022)
(GPL source distribution)
Java Runtime: OpenJDK Runtime Environment
JVM: OpenJDK 64-Bit Server VM
Default Encoding: UTF-8
Language: en
Country: null
--></g></svg>